<svg xmlns="http://www.w3.org/2000/svg" width="900" height="850" viewBox="0 0 900 850" role="img" aria-labelledby="title desc"><title id="title">Matrita datei de nastere pentru Vulcu Marc Ioan</title><desc id="desc">Matrice numerologica 3 pe 3 cu aparitii, optim si geometrie.</desc><style>.title{font:700 31px Georgia,serif;fill:#0b2b2c}.name{font:700 22px Arial,sans-serif;fill:#0b2b2c}.sub{font:14px Arial,sans-serif;fill:#365455}.value{font:800 30px Georgia,serif;fill:#0b2b2c}.small{font:13px Arial,sans-serif;fill:#284748}</style><rect width="900" height="850" fill="#f7efe3"/><text x="450" y="68" text-anchor="middle" class="title">Matrita datei de nastere</text><text x="450" y="108" text-anchor="middle" class="name">Vulcu Marc Ioan</text><text x="450" y="145" text-anchor="middle" class="sub">14.07.2025 · N1=21 · N2=3 · N3=19 · N4=10 · sir 140720252131910</text><g aria-label="Casuta 1: 1111; patrat"><rect x="75" y="245" width="235" height="165" rx="8" fill="#e6b4a9" stroke="#0b2b2c" stroke-opacity=".25"/><text x="87" y="267" class="small">1</text><text x="192.5" y="331" class="value" text-anchor="middle">1111</text><text x="87" y="397" class="small">optim 111</text><rect x="253" y="356" width="32" height="32" fill="none" stroke="#0b2b2c" stroke-width="2.4" stroke-linejoin="round"/></g><g aria-label="Casuta 4: 4; cerc"><rect x="325" y="245" width="235" height="165" rx="8" fill="#d8c1a2" stroke="#0b2b2c" stroke-opacity=".25"/><text x="337" y="267" class="small">4</text><text x="442.5" y="331" class="value" text-anchor="middle">4</text><text x="337" y="397" class="small">optim 44</text><circle cx="519" cy="372" r="11" fill="none" stroke="#0b2b2c" stroke-width="2.4" stroke-linejoin="round"/></g><g aria-label="Casuta 7: 7; cerc"><rect x="575" y="245" width="235" height="165" rx="8" fill="#fffaf3" stroke="#0b2b2c" stroke-opacity=".25"/><text x="587" y="267" class="small">7</text><text x="692.5" y="331" class="value" text-anchor="middle">7</text><text x="587" y="397" class="small">optim 7</text><circle cx="769" cy="372" r="11" fill="none" stroke="#0b2b2c" stroke-width="2.4" stroke-linejoin="round"/></g><g aria-label="Casuta 2: 222; triunghi"><rect x="75" y="425" width="235" height="165" rx="8" fill="#b8d9e7" stroke="#0b2b2c" stroke-opacity=".25"/><text x="87" y="447" class="small">2</text><text x="192.5" y="511" class="value" text-anchor="middle">222</text><text x="87" y="577" class="small">optim 222</text><polygon points="269.0,532.0 286.3,562.0 251.7,562.0" fill="none" stroke="#0b2b2c" stroke-width="2.4" stroke-linejoin="round"/></g><g aria-label="Casuta 5: 5; cerc"><rect x="325" y="425" width="235" height="165" rx="8" fill="#e6b4a9" stroke="#0b2b2c" stroke-opacity=".25"/><text x="337" y="447" class="small">5</text><text x="442.5" y="511" class="value" text-anchor="middle">5</text><text x="337" y="577" class="small">optim 55</text><circle cx="519" cy="552" r="11" fill="none" stroke="#0b2b2c" stroke-width="2.4" stroke-linejoin="round"/></g><g aria-label="Casuta 8: —; absent"><rect x="575" y="425" width="235" height="165" rx="8" fill="#d8c1a2" stroke="#0b2b2c" stroke-opacity=".25"/><text x="587" y="447" class="small">8</text><text x="692.5" y="511" class="value" text-anchor="middle">—</text><text x="587" y="577" class="small">optim 8</text></g><g aria-label="Casuta 3: 3; cerc"><rect x="75" y="605" width="235" height="165" rx="8" fill="#fffaf3" stroke="#0b2b2c" stroke-opacity=".25"/><text x="87" y="627" class="small">3</text><text x="192.5" y="691" class="value" text-anchor="middle">3</text><text x="87" y="757" class="small">optim 333</text><circle cx="269" cy="732" r="11" fill="none" stroke="#0b2b2c" stroke-width="2.4" stroke-linejoin="round"/></g><g aria-label="Casuta 6: —; absent"><rect x="325" y="605" width="235" height="165" rx="8" fill="#b8d9e7" stroke="#0b2b2c" stroke-opacity=".25"/><text x="337" y="627" class="small">6</text><text x="442.5" y="691" class="value" text-anchor="middle">—</text><text x="337" y="757" class="small">optim 66</text></g><g aria-label="Casuta 9: 9; cerc"><rect x="575" y="605" width="235" height="165" rx="8" fill="#e6b4a9" stroke="#0b2b2c" stroke-opacity=".25"/><text x="587" y="627" class="small">9</text><text x="692.5" y="691" class="value" text-anchor="middle">9</text><text x="587" y="757" class="small">optim 9</text><circle cx="769" cy="732" r="11" fill="none" stroke="#0b2b2c" stroke-width="2.4" stroke-linejoin="round"/></g><text x="825" y="820" text-anchor="end" class="sub">Atlas Numerologie</text></svg>