<svg xmlns="http://www.w3.org/2000/svg" width="1100" height="860" viewBox="0 0 1100 860"><rect width="1100" height="860" fill="#fbf7ef"/><text x="550" y="56" text-anchor="middle" font-family="Georgia, serif" font-size="30" fill="#3d2c22">Patratul de Aur - Szabo Mihai Gabriel</text><text x="550" y="88" text-anchor="middle" font-family="Arial, Helvetica, sans-serif" font-size="16" fill="#6d5b50">Ordine: 4 -> 9 -> 2 -> 3 -> 5 -> 7 -> 8 -> 1 -> 6 | Centru: 10 | Suma: 30</text><rect x="250" y="145" width="200" height="200" fill="#ff3f46"/><text x="350" y="193" text-anchor="middle" font-family="Arial, Helvetica, sans-serif" font-size="22" fill="#fffdf8">casuta 1</text><text x="350" y="271" text-anchor="middle" font-family="Georgia, serif" font-size="72" font-weight="700" fill="#fffdf8">13</text><rect x="450" y="145" width="200" height="200" fill="#d19b61"/><text x="550" y="193" text-anchor="middle" font-family="Arial, Helvetica, sans-serif" font-size="22" fill="#3d2c22">casuta 4</text><text x="550" y="271" text-anchor="middle" font-family="Georgia, serif" font-size="72" font-weight="700" fill="#3d2c22">6</text><rect x="650" y="145" width="200" height="200" fill="#e8ecef"/><text x="750" y="193" text-anchor="middle" font-family="Arial, Helvetica, sans-serif" font-size="22" fill="#3d2c22">casuta 7</text><text x="750" y="271" text-anchor="middle" font-family="Georgia, serif" font-size="72" font-weight="700" fill="#3d2c22">11</text><rect x="250" y="345" width="200" height="200" fill="#6fa0e8"/><text x="350" y="393" text-anchor="middle" font-family="Arial, Helvetica, sans-serif" font-size="22" fill="#fffdf8">casuta 2</text><text x="350" y="471" text-anchor="middle" font-family="Georgia, serif" font-size="72" font-weight="700" fill="#fffdf8">8</text><rect x="450" y="345" width="200" height="200" fill="#ff3f46"/><text x="550" y="393" text-anchor="middle" font-family="Arial, Helvetica, sans-serif" font-size="22" fill="#fffdf8">casuta 5</text><text x="550" y="471" text-anchor="middle" font-family="Georgia, serif" font-size="72" font-weight="700" fill="#fffdf8">10</text><rect x="650" y="345" width="200" height="200" fill="#d19b61"/><text x="750" y="393" text-anchor="middle" font-family="Arial, Helvetica, sans-serif" font-size="22" fill="#3d2c22">casuta 8</text><text x="750" y="471" text-anchor="middle" font-family="Georgia, serif" font-size="72" font-weight="700" fill="#3d2c22">12</text><rect x="250" y="545" width="200" height="200" fill="#e8ecef"/><text x="350" y="593" text-anchor="middle" font-family="Arial, Helvetica, sans-serif" font-size="22" fill="#3d2c22">casuta 3</text><text x="350" y="671" text-anchor="middle" font-family="Georgia, serif" font-size="72" font-weight="700" fill="#3d2c22">9</text><rect x="450" y="545" width="200" height="200" fill="#6fa0e8"/><text x="550" y="593" text-anchor="middle" font-family="Arial, Helvetica, sans-serif" font-size="22" fill="#fffdf8">casuta 6</text><text x="550" y="671" text-anchor="middle" font-family="Georgia, serif" font-size="72" font-weight="700" fill="#fffdf8">14</text><rect x="650" y="545" width="200" height="200" fill="#ff3f46"/><text x="750" y="593" text-anchor="middle" font-family="Arial, Helvetica, sans-serif" font-size="22" fill="#fffdf8">casuta 9</text><text x="750" y="671" text-anchor="middle" font-family="Georgia, serif" font-size="72" font-weight="700" fill="#fffdf8">7</text><rect x="250" y="145" width="600" height="600" rx="10" fill="none" stroke="#7a6558" stroke-width="4"/><g stroke="#fffdf8" stroke-width="4"><line x1="450" y1="145" x2="450" y2="745"/><line x1="650" y1="145" x2="650" y2="745"/><line x1="250" y1="345" x2="850" y2="345"/><line x1="250" y1="545" x2="850" y2="545"/></g><text x="875" y="190" font-family="Arial, Helvetica, sans-serif" font-size="18">Linii:</text><text x="875" y="224" font-family="Arial, Helvetica, sans-serif" font-size="18">13 + 6 + 11 = 30</text><text x="875" y="254" font-family="Arial, Helvetica, sans-serif" font-size="18">8 + 10 + 12 = 30</text><text x="875" y="284" font-family="Arial, Helvetica, sans-serif" font-size="18">9 + 14 + 7 = 30</text><text x="875" y="342" font-family="Arial, Helvetica, sans-serif" font-size="18">Coloane:</text><text x="875" y="376" font-family="Arial, Helvetica, sans-serif" font-size="18">13 + 8 + 9 = 30</text><text x="875" y="406" font-family="Arial, Helvetica, sans-serif" font-size="18">6 + 10 + 14 = 30</text><text x="875" y="436" font-family="Arial, Helvetica, sans-serif" font-size="18">11 + 12 + 7 = 30</text><text x="875" y="494" font-family="Arial, Helvetica, sans-serif" font-size="18">Diagonale:</text><text x="875" y="528" font-family="Arial, Helvetica, sans-serif" font-size="18">13 + 10 + 7 = 30</text><text x="875" y="558" font-family="Arial, Helvetica, sans-serif" font-size="18">11 + 10 + 9 = 30</text><g transform="translate(330 805)" font-family="Arial, Helvetica, sans-serif" font-size="14" fill="#3d2c22"><circle cx="0" cy="-5" r="10" fill="#ff3f46"/><text x="18" y="0">Foc</text><circle cx="120" cy="-5" r="10" fill="#6fa0e8"/><text x="138" y="0">Apa</text><circle cx="240" cy="-5" r="10" fill="#e8ecef" stroke="#9aa3aa"/><text x="258" y="0">Aer</text><circle cx="360" cy="-5" r="10" fill="#d19b61"/><text x="378" y="0">Pamant</text></g><text x="1080" y="845" text-anchor="end" font-family="Arial, Helvetica, sans-serif" font-size="14" fill="#aaa" font-weight="800">Atlas Numerologie</text></svg>