<svg xmlns="http://www.w3.org/2000/svg" width="1200" height="760" viewBox="0 0 1200 760"><rect width="1200" height="760" fill="#fbf7ef"/><text x="600" y="54" text-anchor="middle" font-family="Georgia,serif" font-size="28" fill="#3d2c22">Semnatura astrala - Szabo Mihai Gabriel</text><text x="600" y="86" text-anchor="middle" font-family="Arial,sans-serif" font-size="16" fill="#6d5b50">CNP astral: 06.11.1984.30.3.18.9 | Destin: 3 | Centru de rotire: cifra 6</text><g transform="translate(120 160)"><text x="180" y="-24" text-anchor="middle" font-family="Arial,sans-serif" font-size="18">Forma de baza</text><rect x="0" y="0" width="360" height="360" fill="#fffdf8" stroke="#7a6558" stroke-width="3"/><path d="M120 0V360M240 0V360M0 120H360M0 240H360" stroke="#c6b7aa" stroke-width="2" fill="none"/><text x="60" y="72" text-anchor="middle" font-family="Georgia,serif" font-size="38" fill="#7a6558">1</text><text x="180" y="72" text-anchor="middle" font-family="Georgia,serif" font-size="38" fill="#7a6558">4</text><text x="300" y="72" text-anchor="middle" font-family="Georgia,serif" font-size="38" fill="#7a6558">7</text><text x="60" y="192" text-anchor="middle" font-family="Georgia,serif" font-size="38" fill="#7a6558">2</text><text x="180" y="192" text-anchor="middle" font-family="Georgia,serif" font-size="38" fill="#7a6558">5</text><text x="300" y="192" text-anchor="middle" font-family="Georgia,serif" font-size="38" fill="#7a6558">8</text><text x="60" y="312" text-anchor="middle" font-family="Georgia,serif" font-size="38" fill="#7a6558">3</text><text x="180" y="312" text-anchor="middle" font-family="Georgia,serif" font-size="38" fill="#7a6558">6</text><text x="300" y="312" text-anchor="middle" font-family="Georgia,serif" font-size="38" fill="#7a6558">9</text><g fill="none" stroke="#b11f2a" stroke-linecap="round" stroke-linejoin="round"><line x1="60" y1="60" x2="180" y2="300" stroke-width="7"/><line x1="60" y1="60" x2="300" y2="300" stroke-width="7"/><line x1="300" y1="180" x2="300" y2="300" stroke-width="12"/><line x1="180" y1="60" x2="300" y2="180" stroke-width="7"/><line x1="60" y1="300" x2="180" y2="60" stroke-width="7"/><line x1="60" y1="60" x2="60" y2="300" stroke-width="7"/><line x1="60" y1="60" x2="300" y2="180" stroke-width="7"/><circle cx="60" cy="60" r="24" stroke-width="5"/><circle cx="60" cy="60" r="24" stroke-width="5"/><circle cx="60" cy="60" r="24" stroke-width="5"/><circle cx="300" cy="300" r="24" stroke-width="5"/><circle cx="300" cy="180" r="24" stroke-width="5"/><circle cx="60" cy="300" r="24" stroke-width="5"/><circle cx="60" cy="300" r="24" stroke-width="5"/><circle cx="60" cy="60" r="24" stroke-width="5"/><circle cx="300" cy="180" r="24" stroke-width="5"/><circle cx="300" cy="300" r="24" stroke-width="5"/></g><circle cx="180" cy="300" r="14" fill="#0f7f85" stroke="#fffdf8" stroke-width="4"/></g><g transform="translate(700 160)"><text x="180" y="-24" text-anchor="middle" font-family="Arial,sans-serif" font-size="18">Multiplicare dupa destin: 3 rotiri</text><rect x="0" y="0" width="360" height="360" fill="#fffdf8" stroke="#7a6558" stroke-width="3"/><path d="M120 0V360M240 0V360M0 120H360M0 240H360" stroke="#c6b7aa" stroke-width="2" fill="none"/><text x="60" y="72" text-anchor="middle" font-family="Georgia,serif" font-size="38" fill="#7a6558">1</text><text x="180" y="72" text-anchor="middle" font-family="Georgia,serif" font-size="38" fill="#7a6558">4</text><text x="300" y="72" text-anchor="middle" font-family="Georgia,serif" font-size="38" fill="#7a6558">7</text><text x="60" y="192" text-anchor="middle" font-family="Georgia,serif" font-size="38" fill="#7a6558">2</text><text x="180" y="192" text-anchor="middle" font-family="Georgia,serif" font-size="38" fill="#7a6558">5</text><text x="300" y="192" text-anchor="middle" font-family="Georgia,serif" font-size="38" fill="#7a6558">8</text><text x="60" y="312" text-anchor="middle" font-family="Georgia,serif" font-size="38" fill="#7a6558">3</text><text x="180" y="312" text-anchor="middle" font-family="Georgia,serif" font-size="38" fill="#7a6558">6</text><text x="300" y="312" text-anchor="middle" font-family="Georgia,serif" font-size="38" fill="#7a6558">9</text><g transform="rotate(0 180 300)" stroke="#b11f2a" opacity=".52"><line x1="60" y1="60" x2="180" y2="300" stroke-width="7"/><line x1="60" y1="60" x2="300" y2="300" stroke-width="7"/><line x1="300" y1="180" x2="300" y2="300" stroke-width="12"/><line x1="180" y1="60" x2="300" y2="180" stroke-width="7"/><line x1="60" y1="300" x2="180" y2="60" stroke-width="7"/><line x1="60" y1="60" x2="60" y2="300" stroke-width="7"/><line x1="60" y1="60" x2="300" y2="180" stroke-width="7"/><circle cx="60" cy="60" r="24" stroke-width="5"/><circle cx="60" cy="60" r="24" stroke-width="5"/><circle cx="60" cy="60" r="24" stroke-width="5"/><circle cx="300" cy="300" r="24" stroke-width="5"/><circle cx="300" cy="180" r="24" stroke-width="5"/><circle cx="60" cy="300" r="24" stroke-width="5"/><circle cx="60" cy="300" r="24" stroke-width="5"/><circle cx="60" cy="60" r="24" stroke-width="5"/><circle cx="300" cy="180" r="24" stroke-width="5"/><circle cx="300" cy="300" r="24" stroke-width="5"/></g><g transform="rotate(120 180 300)" stroke="#d08a24" opacity=".52"><line x1="60" y1="60" x2="180" y2="300" stroke-width="7"/><line x1="60" y1="60" x2="300" y2="300" stroke-width="7"/><line x1="300" y1="180" x2="300" y2="300" stroke-width="12"/><line x1="180" y1="60" x2="300" y2="180" stroke-width="7"/><line x1="60" y1="300" x2="180" y2="60" stroke-width="7"/><line x1="60" y1="60" x2="60" y2="300" stroke-width="7"/><line x1="60" y1="60" x2="300" y2="180" stroke-width="7"/><circle cx="60" cy="60" r="24" stroke-width="5"/><circle cx="60" cy="60" r="24" stroke-width="5"/><circle cx="60" cy="60" r="24" stroke-width="5"/><circle cx="300" cy="300" r="24" stroke-width="5"/><circle cx="300" cy="180" r="24" stroke-width="5"/><circle cx="60" cy="300" r="24" stroke-width="5"/><circle cx="60" cy="300" r="24" stroke-width="5"/><circle cx="60" cy="60" r="24" stroke-width="5"/><circle cx="300" cy="180" r="24" stroke-width="5"/><circle cx="300" cy="300" r="24" stroke-width="5"/></g><g transform="rotate(240 180 300)" stroke="#0f7f85" opacity=".52"><line x1="60" y1="60" x2="180" y2="300" stroke-width="7"/><line x1="60" y1="60" x2="300" y2="300" stroke-width="7"/><line x1="300" y1="180" x2="300" y2="300" stroke-width="12"/><line x1="180" y1="60" x2="300" y2="180" stroke-width="7"/><line x1="60" y1="300" x2="180" y2="60" stroke-width="7"/><line x1="60" y1="60" x2="60" y2="300" stroke-width="7"/><line x1="60" y1="60" x2="300" y2="180" stroke-width="7"/><circle cx="60" cy="60" r="24" stroke-width="5"/><circle cx="60" cy="60" r="24" stroke-width="5"/><circle cx="60" cy="60" r="24" stroke-width="5"/><circle cx="300" cy="300" r="24" stroke-width="5"/><circle cx="300" cy="180" r="24" stroke-width="5"/><circle cx="60" cy="300" r="24" stroke-width="5"/><circle cx="60" cy="300" r="24" stroke-width="5"/><circle cx="60" cy="60" r="24" stroke-width="5"/><circle cx="300" cy="180" r="24" stroke-width="5"/><circle cx="300" cy="300" r="24" stroke-width="5"/></g><circle cx="180" cy="300" r="14" fill="#0f7f85" stroke="#fffdf8" stroke-width="4"/></g><text x="118" y="610" font-family="Arial,sans-serif" font-size="16">Traseu folosit:</text><text x="118" y="640" font-family="Arial,sans-serif" font-size="18" fill="#6d5b50">6 -> 1 -> 1 -> 1 -> 9 -> 8 -> 4 -> 3 -> 3 -> 1 -> 8 -> 9</text><text x="1180" y="745" text-anchor="end" font-family="Arial,Helvetica,sans-serif" font-size="14" fill="#aaa" font-weight="800">Atlas Numerologie</text></svg>