<svg xmlns="http://www.w3.org/2000/svg" width="1900" height="1080" viewBox="0 0 1900 1080">
  <title>Harta suprapusa soarta-destin-ciclicitati - Birsan Daniel Robert</title>
  <desc>Grafic suprapus cu Soarta, Destin, zona de confort, ani interior/exterior si cicluri de 7, 9 si 12 ani.</desc>
  <defs>
    <style>
      .bg { fill: #f7efe3; }
      .title { font-family: Arial, Helvetica, sans-serif; font-size: 22px; font-weight: 800; fill: #293238; }
      .subtitle { font-family: Arial, Helvetica, sans-serif; font-size: 15px; font-weight: 800; fill: #35434a; }
      .label { font-family: Arial, Helvetica, sans-serif; font-size: 12px; font-weight: 700; fill: #333; }
      .axis-y { font-family: Arial, Helvetica, sans-serif; font-size: 16px; font-weight: 800; fill: #2b2119; }
      .axis-x { font-family: Arial, Helvetica, sans-serif; font-size: 13px; font-weight: 700; fill: #222; }
      .axis-name { font-family: Arial, Helvetica, sans-serif; font-size: 14px; font-weight: 900; fill: #2b2119; }
      .grid { stroke: #c9d0d2; stroke-width: 1; stroke-dasharray: 6 4; }
      .major-y, .major-x { stroke: #aeb7bb; stroke-width: 1.4; }
      .axis { stroke: #111; stroke-width: 3; }
      .axis-light { stroke: #111; stroke-width: 2; }
      .comfort { stroke-width: 4; stroke-dasharray: 18 12; opacity: .75; }
      .comfort-green { stroke: #22b14c; }
      .comfort-red { stroke: #ff1616; }
      .fate-line { fill: none; stroke: #22b14c; stroke-width: 4; stroke-linecap: round; stroke-linejoin: round; }
      .destiny-line { fill: none; stroke: #ff1616; stroke-width: 4; stroke-linecap: round; stroke-linejoin: round; }
      .fate-dot { fill: #22b14c; stroke: #fff; stroke-width: 2; }
      .destiny-dot { fill: #ff1616; stroke: #fff; stroke-width: 2; }
      .meet-dot { fill: #fff; stroke: #333; stroke-width: 2.5; }
      .point-value { font-family: Arial, Helvetica, sans-serif; font-size: 15px; font-weight: 900; paint-order: stroke; stroke: #fff; stroke-width: 3px; }
      .green-text { fill: #22b14c; }
      .red-text { fill: #ff1616; }
      .orange { stroke: #ff9800; stroke-width: 2; opacity: .72; }
      .orange-dot { fill: #ff9800; }
      .orange-label, .orange-small { font-family: Arial, Helvetica, sans-serif; font-size: 10px; font-weight: 800; fill: #ff9800; }
      .cycle7-line { stroke-width: 1.4; opacity: .42; }
      .cycle7-triangle { fill: #ff9800; stroke: #ff9800; stroke-width: 2; vector-effect: non-scaling-stroke; }
      .cycle7-top-label { font-family: Arial, Helvetica, sans-serif; font-size: 10px; font-weight: 900; fill: #ff9800; paint-order: stroke; stroke: #fff3de; stroke-width: 2px; }
      .cycle7-year { font-family: Arial, Helvetica, sans-serif; font-size: 10px; font-weight: 900; fill: #ff9800; paint-order: stroke; stroke: #fff3de; stroke-width: 2px; }
      .triangle-number { font-family: Arial, Helvetica, sans-serif; font-size: 8.5px; font-weight: 900; fill: #fff; dominant-baseline: middle; alignment-baseline: middle; pointer-events: none; }
      .cycle9-line { stroke: #7f2346; stroke-width: 1.4; opacity: .42; }
      .cycle9-square { fill: #7f2346; stroke: #7f2346; stroke-width: 2; vector-effect: non-scaling-stroke; }
      .cycle9-number { font-size: 10px; fill: #fff; }
      .cycle9-year { font-family: Arial, Helvetica, sans-serif; font-size: 10px; font-weight: 900; fill: #7f2346; paint-order: stroke; stroke: #fff3de; stroke-width: 2px; }
      .interior { stroke: #5a4fb0; stroke-width: 2.2; opacity: .78; }
      .interior-dot { fill: #5a4fb0; }
      .interior-label, .interior-small { font-family: Arial, Helvetica, sans-serif; font-size: 11px; font-weight: 900; fill: #5a4fb0; }
      .exterior { stroke: #2f7f5f; stroke-width: 2.2; opacity: .78; }
      .exterior-dot { fill: #2f7f5f; }
      .exterior-label, .exterior-small { font-family: Arial, Helvetica, sans-serif; font-size: 11px; font-weight: 900; fill: #2f7f5f; }
      .year-link { stroke: #7a858c; stroke-width: 1.5; opacity: .62; stroke-dasharray: 4 4; }
      .crisis { stroke: #ff9800; stroke-width: 1.8; opacity: .64; }
      .crisis-dot { fill: #ff9800; }
      .crisis-label, .crisis-small { font-family: Arial, Helvetica, sans-serif; font-size: 10px; font-weight: 800; fill: #ff9800; }
      .crisis-triangle { fill: none; stroke: #ff9800; stroke-width: 2; vector-effect: non-scaling-stroke; }
      .crisis-top-label { font-family: Arial, Helvetica, sans-serif; font-size: 10px; font-weight: 900; fill: #ff9800; paint-order: stroke; stroke: #fff3de; stroke-width: 2px; }
      .crisis-number { fill: #ff9800; stroke: #fff3de; stroke-width: 1.5px; paint-order: stroke; }
      .pill-title { font-family: Arial, Helvetica, sans-serif; font-size: 10px; font-weight: 900; fill: #222; }
      .pill-detail { font-family: Arial, Helvetica, sans-serif; font-size: 9px; font-weight: 700; fill: #333; }
      .pill7 { fill: #ff9800; stroke: #e07400; stroke-width: 1; }
      .pill9 { fill: #ead3dc; stroke: #d59bb0; stroke-width: 1; }
      .pill12 { fill: #cfe4f6; stroke: #98c6e8; stroke-width: 1; }
      .pinacle-line { stroke: #b9a44a; stroke-width: 1.4; opacity: .62; stroke-dasharray: 4 6; }
      .pinacle-square { fill: #b9a44a; stroke: #b9a44a; stroke-width: 2; }
      .pinacle-number { font-family: Arial, Helvetica, sans-serif; font-size: 10px; font-weight: 900; fill: #fffaf0; dominant-baseline: middle; alignment-baseline: middle; }
      .pinacle-year { font-family: Arial, Helvetica, sans-serif; font-size: 10px; font-weight: 900; fill: #6f5f18; paint-order: stroke; stroke: #fff3de; stroke-width: 2px; }
      .pinacle-opportunity-bridge { stroke: #8e44ad; stroke-width: 2.3; stroke-linecap: round; }
      .pinacle-challenge-bridge { stroke: #1f8fbf; stroke-width: 2.3; stroke-linecap: round; }
      .cycle12-line { stroke: #6f9fbd; stroke-width: 1.4; opacity: .52; stroke-dasharray: 4 6; }
      .cycle12-square { fill: #6f9fbd; stroke: #6f9fbd; stroke-width: 2; }
      .cycle12-number { font-family: Arial, Helvetica, sans-serif; font-size: 10px; font-weight: 900; fill: #f5fbff; dominant-baseline: middle; alignment-baseline: middle; }
      .cycle12-year { font-family: Arial, Helvetica, sans-serif; font-size: 10px; font-weight: 900; fill: #3e708f; paint-order: stroke; stroke: #fff3de; stroke-width: 2px; }
      .opportunity-line { fill: none; stroke: #8e44ad; stroke-width: 2.4; opacity: .82; }
      .challenge-line { fill: none; stroke: #1f8fbf; stroke-width: 2.4; opacity: .78; }
      .lesson-line { fill: none; stroke: #9fc9de; stroke-width: 2.2; opacity: .82; stroke-linejoin: round; stroke-linecap: round; }
      .opportunity-dot { fill: #8e44ad; stroke: #fff; stroke-width: 1.5; }
      .challenge-dot { fill: #1f8fbf; stroke: #fff; stroke-width: 1.5; }
      .opportunity-label { font-family: Arial, Helvetica, sans-serif; font-size: 10px; font-weight: 900; fill: #8e44ad; paint-order: stroke; stroke: #fff; stroke-width: 2px; }
      .challenge-label { font-family: Arial, Helvetica, sans-serif; font-size: 10px; font-weight: 900; fill: #1f8fbf; paint-order: stroke; stroke: #fff; stroke-width: 2px; }
      .row-label { font-family: Arial, Helvetica, sans-serif; font-size: 16px; font-weight: 800; }
      .legend { font-family: Arial, Helvetica, sans-serif; font-size: 13px; font-weight: 800; fill: #222; }
      .watermark { font-family: Arial, Helvetica, sans-serif; font-size: 14px; fill: #aaa; font-weight: 800; }
    </style>
  </defs>
<rect class="bg" width="1900" height="1080"/>
<text class="title" x="95.0" y="28.0" text-anchor="start">Harta suprapusa soarta-destin-ciclicitati</text>
<text class="title" x="1740.0" y="28.0" text-anchor="end">BIRSAN DANIEL ROBERT</text>
<text class="subtitle" x="1740.0" y="52.0" text-anchor="end">19.02.1998</text>
<line class="orange cycle7-line" x1="270.0" y1="189.0" x2="270.0" y2="680.0" stroke-width="3.35" stroke-dasharray="7 7"/>
<polygon class="cycle7-triangle" points="259.0,167.0 281.0,167.0 270.0,189.0"/>
<text class="triangle-number" x="270.0" y="173.0" text-anchor="middle">1</text>
<text class="cycle7-year" x="265.0" y="219.5" text-anchor="middle" transform="rotate(-90 265.0 219.5)">1998</text>
<line class="orange cycle7-line" x1="349.1" y1="189.0" x2="349.1" y2="680.0" stroke-width="1.40" stroke-dasharray="7 7"/>
<polygon class="cycle7-triangle" points="338.1,167.0 360.1,167.0 349.1,189.0"/>
<text class="triangle-number" x="349.1" y="173.0" text-anchor="middle">2</text>
<text class="cycle7-year" x="344.1" y="219.5" text-anchor="middle" transform="rotate(-90 344.1 219.5)">2005</text>
<line class="orange cycle7-line" x1="428.1" y1="189.0" x2="428.1" y2="680.0" stroke-width="1.40" stroke-dasharray="7 7"/>
<polygon class="cycle7-triangle" points="417.1,167.0 439.1,167.0 428.1,189.0"/>
<text class="triangle-number" x="428.1" y="173.0" text-anchor="middle">3</text>
<text class="cycle7-year" x="423.1" y="219.5" text-anchor="middle" transform="rotate(-90 423.1 219.5)">2012</text>
<line class="orange cycle7-line" x1="507.2" y1="189.0" x2="507.2" y2="680.0" stroke-width="1.40" stroke-dasharray="7 7"/>
<polygon class="cycle7-triangle" points="496.2,167.0 518.2,167.0 507.2,189.0"/>
<text class="triangle-number" x="507.2" y="173.0" text-anchor="middle">4</text>
<text class="cycle7-year" x="502.2" y="219.5" text-anchor="middle" transform="rotate(-90 502.2 219.5)">2019</text>
<line class="orange cycle7-line" x1="586.3" y1="189.0" x2="586.3" y2="680.0" stroke-width="1.40" stroke-dasharray="7 7"/>
<polygon class="cycle7-triangle" points="575.3,167.0 597.3,167.0 586.3,189.0"/>
<text class="triangle-number" x="586.3" y="173.0" text-anchor="middle">5</text>
<text class="cycle7-year" x="581.3" y="219.5" text-anchor="middle" transform="rotate(-90 581.3 219.5)">2026</text>
<line class="orange cycle7-line" x1="665.4" y1="189.0" x2="665.4" y2="680.0" stroke-width="1.40" stroke-dasharray="7 7"/>
<polygon class="cycle7-triangle" points="654.4,167.0 676.4,167.0 665.4,189.0"/>
<text class="triangle-number" x="665.4" y="173.0" text-anchor="middle">6</text>
<text class="cycle7-year" x="660.4" y="219.5" text-anchor="middle" transform="rotate(-90 660.4 219.5)">2033</text>
<line class="orange cycle7-line" x1="744.4" y1="189.0" x2="744.4" y2="680.0" stroke-width="1.40" stroke-dasharray="7 7"/>
<polygon class="cycle7-triangle" points="733.4,167.0 755.4,167.0 744.4,189.0"/>
<text class="triangle-number" x="744.4" y="173.0" text-anchor="middle">7</text>
<text class="cycle7-year" x="739.4" y="219.5" text-anchor="middle" transform="rotate(-90 739.4 219.5)">2040</text>
<line class="orange cycle7-line" x1="823.5" y1="189.0" x2="823.5" y2="680.0" stroke-width="1.40" stroke-dasharray="7 7"/>
<polygon class="cycle7-triangle" points="812.5,167.0 834.5,167.0 823.5,189.0"/>
<text class="triangle-number" x="823.5" y="173.0" text-anchor="middle">8</text>
<text class="cycle7-year" x="818.5" y="219.5" text-anchor="middle" transform="rotate(-90 818.5 219.5)">2047</text>
<line class="orange cycle7-line" x1="902.6" y1="189.0" x2="902.6" y2="680.0" stroke-width="1.40" stroke-dasharray="7 7"/>
<polygon class="cycle7-triangle" points="891.6,167.0 913.6,167.0 902.6,189.0"/>
<text class="triangle-number" x="902.6" y="173.0" text-anchor="middle">9</text>
<text class="cycle7-year" x="897.6" y="219.5" text-anchor="middle" transform="rotate(-90 897.6 219.5)">2054</text>
<line class="orange cycle7-line" x1="981.7" y1="189.0" x2="981.7" y2="680.0" stroke-width="3.35" stroke-dasharray="7 7"/>
<polygon class="cycle7-triangle" points="970.7,167.0 992.7,167.0 981.7,189.0"/>
<text class="triangle-number" x="981.7" y="173.0" text-anchor="middle">10</text>
<text class="cycle7-year" x="976.7" y="219.5" text-anchor="middle" transform="rotate(-90 976.7 219.5)">2061</text>
<line class="orange cycle7-line" x1="1060.7" y1="189.0" x2="1060.7" y2="680.0" stroke-width="1.40" stroke-dasharray="7 7"/>
<polygon class="cycle7-triangle" points="1049.7,167.0 1071.7,167.0 1060.7,189.0"/>
<text class="triangle-number" x="1060.7" y="173.0" text-anchor="middle">11</text>
<text class="cycle7-year" x="1055.7" y="219.5" text-anchor="middle" transform="rotate(-90 1055.7 219.5)">2068</text>
<line class="orange cycle7-line" x1="1139.8" y1="189.0" x2="1139.8" y2="680.0" stroke-width="1.40" stroke-dasharray="7 7"/>
<polygon class="cycle7-triangle" points="1128.8,167.0 1150.8,167.0 1139.8,189.0"/>
<text class="triangle-number" x="1139.8" y="173.0" text-anchor="middle">12</text>
<text class="cycle7-year" x="1134.8" y="219.5" text-anchor="middle" transform="rotate(-90 1134.8 219.5)">2075</text>
<line class="orange cycle7-line" x1="1218.9" y1="189.0" x2="1218.9" y2="680.0" stroke-width="2.05" stroke-dasharray="7 7"/>
<polygon class="cycle7-triangle" points="1207.9,167.0 1229.9,167.0 1218.9,189.0"/>
<text class="triangle-number" x="1218.9" y="173.0" text-anchor="middle">13</text>
<text class="cycle7-year" x="1213.9" y="219.5" text-anchor="middle" transform="rotate(-90 1213.9 219.5)">2082</text>
<line class="orange cycle7-line" x1="1298.0" y1="189.0" x2="1298.0" y2="680.0" stroke-width="1.40" stroke-dasharray="7 7"/>
<polygon class="cycle7-triangle" points="1287.0,167.0 1309.0,167.0 1298.0,189.0"/>
<text class="triangle-number" x="1298.0" y="173.0" text-anchor="middle">14</text>
<text class="cycle7-year" x="1293.0" y="219.5" text-anchor="middle" transform="rotate(-90 1293.0 219.5)">2089</text>
<line class="orange cycle7-line" x1="1377.0" y1="189.0" x2="1377.0" y2="680.0" stroke-width="1.40" stroke-dasharray="7 7"/>
<polygon class="cycle7-triangle" points="1366.0,167.0 1388.0,167.0 1377.0,189.0"/>
<text class="triangle-number" x="1377.0" y="173.0" text-anchor="middle">15</text>
<text class="cycle7-year" x="1372.0" y="219.5" text-anchor="middle" transform="rotate(-90 1372.0 219.5)">2096</text>
<line class="orange cycle7-line" x1="1456.1" y1="189.0" x2="1456.1" y2="680.0" stroke-width="1.40" stroke-dasharray="7 7"/>
<polygon class="cycle7-triangle" points="1445.1,167.0 1467.1,167.0 1456.1,189.0"/>
<text class="triangle-number" x="1456.1" y="173.0" text-anchor="middle">16</text>
<text class="cycle7-year" x="1451.1" y="219.5" text-anchor="middle" transform="rotate(-90 1451.1 219.5)">2103</text>
<line class="crisis" x1="309.5" y1="189.0" x2="309.5" y2="680.0" stroke-dasharray="6 6"/>
<polygon class="crisis-triangle" points="298.5,189.0 320.5,189.0 309.5,167.0"/>
<line class="crisis" x1="388.6" y1="189.0" x2="388.6" y2="680.0" stroke-dasharray="6 6"/>
<polygon class="crisis-triangle" points="377.6,189.0 399.6,189.0 388.6,167.0"/>
<line class="crisis" x1="467.7" y1="189.0" x2="467.7" y2="680.0" stroke-dasharray="6 6"/>
<polygon class="crisis-triangle" points="456.7,189.0 478.7,189.0 467.7,167.0"/>
<line class="crisis" x1="546.8" y1="189.0" x2="546.8" y2="680.0" stroke-dasharray="6 6"/>
<polygon class="crisis-triangle" points="535.8,189.0 557.8,189.0 546.8,167.0"/>
<line class="crisis" x1="625.8" y1="189.0" x2="625.8" y2="680.0" stroke-dasharray="6 6"/>
<polygon class="crisis-triangle" points="614.8,189.0 636.8,189.0 625.8,167.0"/>
<line class="crisis" x1="704.9" y1="189.0" x2="704.9" y2="680.0" stroke-dasharray="6 6"/>
<polygon class="crisis-triangle" points="693.9,189.0 715.9,189.0 704.9,167.0"/>
<line class="crisis" x1="784.0" y1="189.0" x2="784.0" y2="680.0" stroke-dasharray="6 6"/>
<polygon class="crisis-triangle" points="773.0,189.0 795.0,189.0 784.0,167.0"/>
<line class="crisis" x1="863.1" y1="189.0" x2="863.1" y2="680.0" stroke-dasharray="6 6"/>
<polygon class="crisis-triangle" points="852.1,189.0 874.1,189.0 863.1,167.0"/>
<line class="crisis" x1="942.1" y1="189.0" x2="942.1" y2="680.0" stroke-dasharray="6 6"/>
<polygon class="crisis-triangle" points="931.1,189.0 953.1,189.0 942.1,167.0"/>
<line class="crisis" x1="1021.2" y1="189.0" x2="1021.2" y2="680.0" stroke-dasharray="6 6"/>
<polygon class="crisis-triangle" points="1010.2,189.0 1032.2,189.0 1021.2,167.0"/>
<line class="crisis" x1="1100.3" y1="189.0" x2="1100.3" y2="680.0" stroke-dasharray="6 6"/>
<polygon class="crisis-triangle" points="1089.3,189.0 1111.3,189.0 1100.3,167.0"/>
<line class="crisis" x1="1179.4" y1="189.0" x2="1179.4" y2="680.0" stroke-dasharray="6 6"/>
<polygon class="crisis-triangle" points="1168.4,189.0 1190.4,189.0 1179.4,167.0"/>
<line class="crisis" x1="1258.4" y1="189.0" x2="1258.4" y2="680.0" stroke-dasharray="6 6"/>
<polygon class="crisis-triangle" points="1247.4,189.0 1269.4,189.0 1258.4,167.0"/>
<line class="crisis" x1="1337.5" y1="189.0" x2="1337.5" y2="680.0" stroke-dasharray="6 6"/>
<polygon class="crisis-triangle" points="1326.5,189.0 1348.5,189.0 1337.5,167.0"/>
<line class="crisis" x1="1416.6" y1="189.0" x2="1416.6" y2="680.0" stroke-dasharray="6 6"/>
<polygon class="crisis-triangle" points="1405.6,189.0 1427.6,189.0 1416.6,167.0"/>
<line class="grid major-y" x1="270.0" y1="680.0" x2="1490.0" y2="680.0"/>
<text class="axis-y" x="250.0" y="685.0" text-anchor="end">0</text>
<line class="grid" x1="270.0" y1="632.2" x2="1490.0" y2="632.2"/>
<text class="axis-y" x="250.0" y="637.2" text-anchor="end">1</text>
<line class="grid" x1="270.0" y1="584.4" x2="1490.0" y2="584.4"/>
<text class="axis-y" x="250.0" y="589.4" text-anchor="end">2</text>
<line class="grid" x1="270.0" y1="536.7" x2="1490.0" y2="536.7"/>
<text class="axis-y" x="250.0" y="541.7" text-anchor="end">3</text>
<line class="grid" x1="270.0" y1="488.9" x2="1490.0" y2="488.9"/>
<text class="axis-y" x="250.0" y="493.9" text-anchor="end">4</text>
<line class="grid" x1="270.0" y1="441.1" x2="1490.0" y2="441.1"/>
<text class="axis-y" x="250.0" y="446.1" text-anchor="end">5</text>
<line class="grid" x1="270.0" y1="393.3" x2="1490.0" y2="393.3"/>
<text class="axis-y" x="250.0" y="398.3" text-anchor="end">6</text>
<line class="grid" x1="270.0" y1="345.6" x2="1490.0" y2="345.6"/>
<text class="axis-y" x="250.0" y="350.6" text-anchor="end">7</text>
<line class="grid" x1="270.0" y1="297.8" x2="1490.0" y2="297.8"/>
<text class="axis-y" x="250.0" y="302.8" text-anchor="end">8</text>
<line class="grid major-y" x1="270.0" y1="250.0" x2="1490.0" y2="250.0"/>
<text class="axis-y" x="250.0" y="255.0" text-anchor="end">9</text>
<line class="grid major-x" x1="270.0" y1="250.0" x2="270.0" y2="680.0"/>
<text class="axis-x" x="270.0" y="704.0" text-anchor="middle">0</text>
<line class="grid" x1="383.0" y1="250.0" x2="383.0" y2="680.0"/>
<text class="axis-x" x="383.0" y="704.0" text-anchor="middle">10</text>
<line class="grid major-x" x1="495.9" y1="250.0" x2="495.9" y2="680.0"/>
<text class="axis-x" x="495.9" y="704.0" text-anchor="middle">20</text>
<line class="grid" x1="608.9" y1="250.0" x2="608.9" y2="680.0"/>
<text class="axis-x" x="608.9" y="704.0" text-anchor="middle">30</text>
<line class="grid major-x" x1="721.9" y1="250.0" x2="721.9" y2="680.0"/>
<text class="axis-x" x="721.9" y="704.0" text-anchor="middle">40</text>
<line class="grid" x1="834.8" y1="250.0" x2="834.8" y2="680.0"/>
<text class="axis-x" x="834.8" y="704.0" text-anchor="middle">50</text>
<line class="grid major-x" x1="947.8" y1="250.0" x2="947.8" y2="680.0"/>
<text class="axis-x" x="947.8" y="704.0" text-anchor="middle">60</text>
<line class="grid" x1="1060.7" y1="250.0" x2="1060.7" y2="680.0"/>
<text class="axis-x" x="1060.7" y="704.0" text-anchor="middle">70</text>
<line class="grid major-x" x1="1173.7" y1="250.0" x2="1173.7" y2="680.0"/>
<text class="axis-x" x="1173.7" y="704.0" text-anchor="middle">80</text>
<line class="grid" x1="1286.7" y1="250.0" x2="1286.7" y2="680.0"/>
<text class="axis-x" x="1286.7" y="704.0" text-anchor="middle">90</text>
<line class="grid major-x" x1="1399.6" y1="250.0" x2="1399.6" y2="680.0"/>
<text class="axis-x" x="1399.6" y="704.0" text-anchor="middle">100</text>
<line class="grid" x1="1490.0" y1="250.0" x2="1490.0" y2="680.0"/>
<text class="axis-x" x="1490.0" y="704.0" text-anchor="middle">108</text>
<line class="axis" x1="270.0" y1="250.0" x2="270.0" y2="680.0"/>
<line class="axis" x1="270.0" y1="680.0" x2="1490.0" y2="680.0"/>
<line class="axis-light" x1="1490.0" y1="250.0" x2="1490.0" y2="680.0"/>
<line class="comfort comfort-green" x1="270.0" y1="492.7" x2="1490.0" y2="492.7"/>
<line class="comfort comfort-red" x1="270.0" y1="498.7" x2="1490.0" y2="498.7"/>
<polyline class="fate-line" points="270.0,536.7 383.0,297.8 495.9,680.0 608.9,680.0 721.9,632.2 834.8,250.0 947.8,393.3 1060.7,536.7 1173.7,297.8 1286.7,680.0 1399.6,680.0 1490.0,632.2"/>
<polyline class="destiny-line" points="270.0,536.7 383.0,297.8 495.9,584.4 608.9,680.0 721.9,632.2 834.8,345.6 947.8,393.3 1060.7,536.7 1173.7,297.8 1286.7,584.4 1399.6,680.0 1490.0,632.2"/>
<circle class="meet-dot" cx="270.0" cy="536.7" r="8"/>
<text class="point-value green-text" x="288.0" y="518.7" text-anchor="start">3</text>
<text class="point-value red-text" x="288.0" y="564.7" text-anchor="start">3</text>
<circle class="meet-dot" cx="383.0" cy="297.8" r="8"/>
<text class="point-value green-text" x="365.0" y="323.8" text-anchor="end">8</text>
<text class="point-value red-text" x="401.0" y="323.8" text-anchor="start">8</text>
<circle class="fate-dot" cx="495.9" cy="680.0" r="7"/>
<text class="point-value green-text" x="477.9" y="664.0" text-anchor="end">0</text>
<circle class="destiny-dot" cx="495.9" cy="584.4" r="7"/>
<text class="point-value red-text" x="513.9" y="610.4" text-anchor="start">2</text>
<circle class="meet-dot" cx="608.9" cy="680.0" r="8"/>
<text class="point-value green-text" x="590.9" y="664.0" text-anchor="end">0</text>
<text class="point-value red-text" x="626.9" y="664.0" text-anchor="start">0</text>
<circle class="meet-dot" cx="721.9" cy="632.2" r="8"/>
<text class="point-value green-text" x="703.9" y="616.2" text-anchor="end">1</text>
<text class="point-value red-text" x="739.9" y="616.2" text-anchor="start">1</text>
<circle class="fate-dot" cx="834.8" cy="250.0" r="7"/>
<text class="point-value green-text" x="816.8" y="276.0" text-anchor="end">9</text>
<circle class="destiny-dot" cx="834.8" cy="345.6" r="7"/>
<text class="point-value red-text" x="852.8" y="371.6" text-anchor="start">7</text>
<circle class="meet-dot" cx="947.8" cy="393.3" r="8"/>
<text class="point-value green-text" x="929.8" y="375.3" text-anchor="end">6</text>
<text class="point-value red-text" x="965.8" y="421.3" text-anchor="start">6</text>
<circle class="meet-dot" cx="1060.7" cy="536.7" r="8"/>
<text class="point-value green-text" x="1042.7" y="518.7" text-anchor="end">3</text>
<text class="point-value red-text" x="1078.7" y="564.7" text-anchor="start">3</text>
<circle class="meet-dot" cx="1173.7" cy="297.8" r="8"/>
<text class="point-value green-text" x="1155.7" y="323.8" text-anchor="end">8</text>
<text class="point-value red-text" x="1191.7" y="323.8" text-anchor="start">8</text>
<circle class="fate-dot" cx="1286.7" cy="680.0" r="7"/>
<text class="point-value green-text" x="1268.7" y="664.0" text-anchor="end">0</text>
<circle class="destiny-dot" cx="1286.7" cy="584.4" r="7"/>
<text class="point-value red-text" x="1304.7" y="610.4" text-anchor="start">2</text>
<circle class="meet-dot" cx="1399.6" cy="680.0" r="8"/>
<text class="point-value green-text" x="1381.6" y="664.0" text-anchor="end">0</text>
<text class="point-value red-text" x="1417.6" y="664.0" text-anchor="start">0</text>
<circle class="meet-dot" cx="1490.0" cy="632.2" r="8"/>
<text class="point-value green-text" x="1472.0" y="614.2" text-anchor="end">1</text>
<text class="point-value red-text" x="1472.0" y="660.2" text-anchor="end">1</text>
<polyline class="lesson-line" points="270.0,345.6 281.3,441.1 292.6,250.0 303.9,584.4 315.2,488.9 326.5,345.6 337.8,441.1 349.1,250.0 360.4,584.4 371.7,488.9 383.0,345.6 394.3,441.1 405.6,250.0 416.9,584.4 428.1,488.9 439.4,345.6 450.7,441.1 462.0,250.0 473.3,584.4 484.6,488.9 495.9,345.6 507.2,441.1 518.5,250.0 529.8,584.4 541.1,488.9 552.4,345.6 563.7,441.1 575.0,250.0 586.3,584.4 597.6,488.9 608.9,345.6 620.2,441.1 631.5,250.0 642.8,584.4 654.1,488.9 665.4,345.6 676.7,441.1 688.0,250.0 699.3,584.4 710.6,488.9 721.9,345.6 733.1,441.1 744.4,250.0 755.7,584.4 767.0,488.9 778.3,345.6 789.6,441.1 800.9,250.0 812.2,584.4 823.5,488.9 834.8,345.6 846.1,441.1 857.4,250.0 868.7,584.4 880.0,488.9 891.3,345.6 902.6,441.1 913.9,250.0 925.2,584.4 936.5,488.9 947.8,345.6 959.1,441.1 970.4,250.0 981.7,584.4 993.0,488.9 1004.3,345.6 1015.6,441.1 1026.9,250.0 1038.1,584.4 1049.4,488.9 1060.7,345.6 1072.0,441.1 1083.3,250.0 1094.6,584.4 1105.9,488.9 1117.2,345.6 1128.5,441.1 1139.8,250.0 1151.1,584.4 1162.4,488.9 1173.7,345.6 1185.0,441.1 1196.3,250.0 1207.6,584.4 1218.9,488.9 1230.2,345.6 1241.5,441.1 1252.8,250.0 1264.1,584.4 1275.4,488.9 1286.7,345.6 1298.0,441.1 1309.3,250.0 1320.6,584.4 1331.9,488.9 1343.1,345.6 1354.4,441.1 1365.7,250.0 1377.0,584.4 1388.3,488.9 1399.6,345.6 1410.9,441.1 1422.2,250.0 1433.5,584.4 1444.8,488.9 1456.1,345.6 1467.4,441.1 1478.7,250.0 1490.0,584.4"/>
<path class="opportunity-line" d="M 270.0 536.7 H 642.8 V 632.2 H 744.4 V 488.9 H 846.1 V 584.4 H 1490.0"/>
<path class="challenge-line" d="M 270.0 632.2 H 642.8 V 297.8 H 744.4 V 345.6 H 846.1 V 345.6 H 1490.0"/>
<circle class="opportunity-dot" cx="456.4" cy="536.7" r="4"/>
<circle class="challenge-dot" cx="456.4" cy="632.2" r="4"/>
<text class="opportunity-label" x="456.4" y="527.7" text-anchor="middle">O3</text>
<text class="challenge-label" x="456.4" y="647.2" text-anchor="middle">P1</text>
<circle class="opportunity-dot" cx="699.3" cy="632.2" r="4"/>
<circle class="challenge-dot" cx="699.3" cy="297.8" r="4"/>
<text class="opportunity-label" x="699.3" y="623.2" text-anchor="middle">O1</text>
<text class="challenge-label" x="699.3" y="312.8" text-anchor="middle">P8</text>
<circle class="opportunity-dot" cx="800.9" cy="488.9" r="4"/>
<circle class="challenge-dot" cx="800.9" cy="345.6" r="4"/>
<text class="opportunity-label" x="800.9" y="479.9" text-anchor="middle">O4</text>
<text class="challenge-label" x="800.9" y="360.6" text-anchor="middle">P7</text>
<circle class="opportunity-dot" cx="1173.7" cy="584.4" r="4"/>
<circle class="challenge-dot" cx="1173.7" cy="345.6" r="4"/>
<text class="opportunity-label" x="1173.7" y="575.4" text-anchor="middle">O2</text>
<text class="challenge-label" x="1173.7" y="360.6" text-anchor="middle">P7</text>
<text class="axis-name" x="880.0" y="725.0" text-anchor="middle">Ani</text>
<text class="axis-name" x="202.0" y="465.0" text-anchor="middle" transform="rotate(-90 202.0 465.0)">Vibrație</text>
<text class="row-label interior-label" x="234.0" y="762.0" text-anchor="end">Ani interior</text>
<text class="row-label exterior-label" x="234.0" y="792.0" text-anchor="end">Ani exterior</text>
<line class="year-link" x1="371.7" y1="250.0" x2="371.7" y2="798.0" stroke-width="2.15"/>
<text class="interior-label" x="366.7" y="762.0" text-anchor="middle" transform="rotate(-90 366.7 762.0)">2007</text>
<line class="year-link" x1="473.3" y1="250.0" x2="473.3" y2="798.0" stroke-width="2.15"/>
<text class="interior-label" x="468.3" y="762.0" text-anchor="middle" transform="rotate(-90 468.3 762.0)">2016</text>
<line class="year-link" x1="575.0" y1="250.0" x2="575.0" y2="798.0" stroke-width="2.80"/>
<text class="interior-label" x="570.0" y="762.0" text-anchor="middle" transform="rotate(-90 570.0 762.0)">2025</text>
<text class="exterior-label" x="587.0" y="792.0" text-anchor="middle" transform="rotate(-90 587.0 792.0)">2025</text>
<line class="year-link" x1="676.7" y1="250.0" x2="676.7" y2="798.0" stroke-width="3.45"/>
<text class="interior-label" x="671.7" y="762.0" text-anchor="middle" transform="rotate(-90 671.7 762.0)">2034</text>
<text class="exterior-label" x="688.7" y="792.0" text-anchor="middle" transform="rotate(-90 688.7 792.0)">2034</text>
<line class="year-link" x1="778.3" y1="250.0" x2="778.3" y2="798.0" stroke-width="2.80"/>
<text class="interior-label" x="773.3" y="762.0" text-anchor="middle" transform="rotate(-90 773.3 762.0)">2043</text>
<text class="exterior-label" x="790.3" y="792.0" text-anchor="middle" transform="rotate(-90 790.3 792.0)">2043</text>
<line class="year-link" x1="880.0" y1="250.0" x2="880.0" y2="798.0" stroke-width="2.80"/>
<text class="interior-label" x="875.0" y="762.0" text-anchor="middle" transform="rotate(-90 875.0 762.0)">2052</text>
<text class="exterior-label" x="892.0" y="792.0" text-anchor="middle" transform="rotate(-90 892.0 792.0)">2052</text>
<line class="year-link" x1="981.7" y1="250.0" x2="981.7" y2="798.0" stroke-width="3.45"/>
<text class="interior-label" x="976.7" y="762.0" text-anchor="middle" transform="rotate(-90 976.7 762.0)">2061</text>
<text class="exterior-label" x="993.7" y="792.0" text-anchor="middle" transform="rotate(-90 993.7 792.0)">2061</text>
<line class="year-link" x1="1083.3" y1="250.0" x2="1083.3" y2="798.0" stroke-width="3.45"/>
<text class="interior-label" x="1078.3" y="762.0" text-anchor="middle" transform="rotate(-90 1078.3 762.0)">2070</text>
<text class="exterior-label" x="1095.3" y="792.0" text-anchor="middle" transform="rotate(-90 1095.3 792.0)">2070</text>
<line class="year-link" x1="1185.0" y1="250.0" x2="1185.0" y2="798.0" stroke-width="2.80"/>
<text class="interior-label" x="1180.0" y="762.0" text-anchor="middle" transform="rotate(-90 1180.0 762.0)">2079</text>
<text class="exterior-label" x="1197.0" y="792.0" text-anchor="middle" transform="rotate(-90 1197.0 792.0)">2079</text>
<line class="year-link" x1="1286.7" y1="250.0" x2="1286.7" y2="798.0" stroke-width="2.15"/>
<text class="interior-label" x="1281.7" y="762.0" text-anchor="middle" transform="rotate(-90 1281.7 762.0)">2088</text>
<line class="year-link" x1="1388.3" y1="250.0" x2="1388.3" y2="798.0" stroke-width="2.80"/>
<text class="interior-label" x="1383.3" y="762.0" text-anchor="middle" transform="rotate(-90 1383.3 762.0)">2097</text>
<text class="exterior-label" x="1400.3" y="792.0" text-anchor="middle" transform="rotate(-90 1400.3 792.0)">2097</text>
<line class="year-link" x1="1490.0" y1="250.0" x2="1490.0" y2="798.0" stroke-width="1.50"/>
<text class="interior-label" x="1485.0" y="762.0" text-anchor="middle" transform="rotate(-90 1485.0 762.0)">2106</text>
<line class="cycle9-line" x1="270.0" y1="680.0" x2="270.0" y2="847.0" stroke-width="3.35"/>
<line class="cycle9-line" x1="371.7" y1="680.0" x2="371.7" y2="847.0" stroke-width="2.05"/>
<line class="cycle9-line" x1="473.3" y1="680.0" x2="473.3" y2="847.0" stroke-width="2.05"/>
<line class="cycle9-line" x1="575.0" y1="680.0" x2="575.0" y2="847.0" stroke-width="2.70"/>
<line class="cycle9-line" x1="676.7" y1="680.0" x2="676.7" y2="847.0" stroke-width="3.35"/>
<line class="cycle9-line" x1="778.3" y1="680.0" x2="778.3" y2="847.0" stroke-width="2.70"/>
<line class="cycle9-line" x1="880.0" y1="680.0" x2="880.0" y2="847.0" stroke-width="2.70"/>
<line class="cycle9-line" x1="981.7" y1="680.0" x2="981.7" y2="847.0" stroke-width="3.35"/>
<line class="cycle9-line" x1="1083.3" y1="680.0" x2="1083.3" y2="847.0" stroke-width="3.35"/>
<line class="cycle9-line" x1="1185.0" y1="680.0" x2="1185.0" y2="847.0" stroke-width="2.70"/>
<line class="cycle9-line" x1="1286.7" y1="680.0" x2="1286.7" y2="847.0" stroke-width="2.05"/>
<line class="cycle9-line" x1="1388.3" y1="680.0" x2="1388.3" y2="847.0" stroke-width="2.70"/>
<line class="cycle12-line" x1="270.0" y1="250.0" x2="270.0" y2="917.0" stroke-width="3.35"/>
<line class="cycle12-line" x1="405.6" y1="250.0" x2="405.6" y2="917.0" stroke-width="1.40"/>
<line class="cycle12-line" x1="541.1" y1="250.0" x2="541.1" y2="917.0" stroke-width="1.40"/>
<line class="cycle12-line" x1="676.7" y1="250.0" x2="676.7" y2="917.0" stroke-width="3.35"/>
<line class="cycle12-line" x1="812.2" y1="250.0" x2="812.2" y2="917.0" stroke-width="1.40"/>
<line class="cycle12-line" x1="947.8" y1="250.0" x2="947.8" y2="917.0" stroke-width="1.40"/>
<line class="cycle12-line" x1="1083.3" y1="250.0" x2="1083.3" y2="917.0" stroke-width="3.35"/>
<line class="cycle12-line" x1="1218.9" y1="250.0" x2="1218.9" y2="917.0" stroke-width="2.05"/>
<line class="cycle12-line" x1="1354.4" y1="250.0" x2="1354.4" y2="917.0" stroke-width="1.40"/>
<line class="pinacle-line" x1="270.0" y1="250.0" x2="270.0" y2="977.0" stroke-width="3.35"/>
<line class="pinacle-line" x1="654.1" y1="250.0" x2="654.1" y2="977.0" stroke-width="1.40"/>
<line class="pinacle-line" x1="755.7" y1="250.0" x2="755.7" y2="977.0" stroke-width="1.40"/>
<line class="pinacle-line" x1="857.4" y1="250.0" x2="857.4" y2="977.0" stroke-width="1.40"/>
<rect class="cycle9-square" x="258.0" y="847.0" width="24.0" height="24.0" rx="2"/>
<text class="cycle9-number" x="270.0" y="859.5" text-anchor="middle">1</text>
<text class="cycle9-year" x="264.0" y="829.0" text-anchor="middle" transform="rotate(-90 264.0 829.0)">1998</text>
<rect class="cycle9-square" x="359.7" y="847.0" width="24.0" height="24.0" rx="2"/>
<text class="cycle9-number" x="371.7" y="859.5" text-anchor="middle">2</text>
<text class="cycle9-year" x="365.7" y="829.0" text-anchor="middle" transform="rotate(-90 365.7 829.0)">2007</text>
<rect class="cycle9-square" x="461.3" y="847.0" width="24.0" height="24.0" rx="2"/>
<text class="cycle9-number" x="473.3" y="859.5" text-anchor="middle">3</text>
<text class="cycle9-year" x="467.3" y="829.0" text-anchor="middle" transform="rotate(-90 467.3 829.0)">2016</text>
<rect class="cycle9-square" x="563.0" y="847.0" width="24.0" height="24.0" rx="2"/>
<text class="cycle9-number" x="575.0" y="859.5" text-anchor="middle">4</text>
<text class="cycle9-year" x="569.0" y="829.0" text-anchor="middle" transform="rotate(-90 569.0 829.0)">2025</text>
<rect class="cycle9-square" x="664.7" y="847.0" width="24.0" height="24.0" rx="2"/>
<text class="cycle9-number" x="676.7" y="859.5" text-anchor="middle">5</text>
<text class="cycle9-year" x="670.7" y="829.0" text-anchor="middle" transform="rotate(-90 670.7 829.0)">2034</text>
<rect class="cycle9-square" x="766.3" y="847.0" width="24.0" height="24.0" rx="2"/>
<text class="cycle9-number" x="778.3" y="859.5" text-anchor="middle">6</text>
<text class="cycle9-year" x="772.3" y="829.0" text-anchor="middle" transform="rotate(-90 772.3 829.0)">2043</text>
<rect class="cycle9-square" x="868.0" y="847.0" width="24.0" height="24.0" rx="2"/>
<text class="cycle9-number" x="880.0" y="859.5" text-anchor="middle">7</text>
<text class="cycle9-year" x="874.0" y="829.0" text-anchor="middle" transform="rotate(-90 874.0 829.0)">2052</text>
<rect class="cycle9-square" x="969.7" y="847.0" width="24.0" height="24.0" rx="2"/>
<text class="cycle9-number" x="981.7" y="859.5" text-anchor="middle">8</text>
<text class="cycle9-year" x="975.7" y="829.0" text-anchor="middle" transform="rotate(-90 975.7 829.0)">2061</text>
<rect class="cycle9-square" x="1071.3" y="847.0" width="24.0" height="24.0" rx="2"/>
<text class="cycle9-number" x="1083.3" y="859.5" text-anchor="middle">9</text>
<text class="cycle9-year" x="1077.3" y="829.0" text-anchor="middle" transform="rotate(-90 1077.3 829.0)">2070</text>
<rect class="cycle9-square" x="1173.0" y="847.0" width="24.0" height="24.0" rx="2"/>
<text class="cycle9-number" x="1185.0" y="859.5" text-anchor="middle">10</text>
<text class="cycle9-year" x="1179.0" y="829.0" text-anchor="middle" transform="rotate(-90 1179.0 829.0)">2079</text>
<rect class="cycle9-square" x="1274.7" y="847.0" width="24.0" height="24.0" rx="2"/>
<text class="cycle9-number" x="1286.7" y="859.5" text-anchor="middle">11</text>
<text class="cycle9-year" x="1280.7" y="829.0" text-anchor="middle" transform="rotate(-90 1280.7 829.0)">2088</text>
<rect class="cycle9-square" x="1376.3" y="847.0" width="24.0" height="24.0" rx="2"/>
<text class="cycle9-number" x="1388.3" y="859.5" text-anchor="middle">12</text>
<text class="cycle9-year" x="1382.3" y="829.0" text-anchor="middle" transform="rotate(-90 1382.3 829.0)">2097</text>
<rect class="cycle12-square" x="258.0" y="917.0" width="24.0" height="24.0" rx="2"/>
<text class="cycle12-number" x="270.0" y="929.5" text-anchor="middle">1</text>
<text class="cycle12-year" x="264.0" y="899.0" text-anchor="middle" transform="rotate(-90 264.0 899.0)">1998</text>
<rect class="cycle12-square" x="393.6" y="917.0" width="24.0" height="24.0" rx="2"/>
<text class="cycle12-number" x="405.6" y="929.5" text-anchor="middle">2</text>
<text class="cycle12-year" x="399.6" y="899.0" text-anchor="middle" transform="rotate(-90 399.6 899.0)">2010</text>
<rect class="cycle12-square" x="529.1" y="917.0" width="24.0" height="24.0" rx="2"/>
<text class="cycle12-number" x="541.1" y="929.5" text-anchor="middle">3</text>
<text class="cycle12-year" x="535.1" y="899.0" text-anchor="middle" transform="rotate(-90 535.1 899.0)">2022</text>
<rect class="cycle12-square" x="664.7" y="917.0" width="24.0" height="24.0" rx="2"/>
<text class="cycle12-number" x="676.7" y="929.5" text-anchor="middle">4</text>
<text class="cycle12-year" x="670.7" y="899.0" text-anchor="middle" transform="rotate(-90 670.7 899.0)">2034</text>
<rect class="cycle12-square" x="800.2" y="917.0" width="24.0" height="24.0" rx="2"/>
<text class="cycle12-number" x="812.2" y="929.5" text-anchor="middle">5</text>
<text class="cycle12-year" x="806.2" y="899.0" text-anchor="middle" transform="rotate(-90 806.2 899.0)">2046</text>
<rect class="cycle12-square" x="935.8" y="917.0" width="24.0" height="24.0" rx="2"/>
<text class="cycle12-number" x="947.8" y="929.5" text-anchor="middle">6</text>
<text class="cycle12-year" x="941.8" y="899.0" text-anchor="middle" transform="rotate(-90 941.8 899.0)">2058</text>
<rect class="cycle12-square" x="1071.3" y="917.0" width="24.0" height="24.0" rx="2"/>
<text class="cycle12-number" x="1083.3" y="929.5" text-anchor="middle">7</text>
<text class="cycle12-year" x="1077.3" y="899.0" text-anchor="middle" transform="rotate(-90 1077.3 899.0)">2070</text>
<rect class="cycle12-square" x="1206.9" y="917.0" width="24.0" height="24.0" rx="2"/>
<text class="cycle12-number" x="1218.9" y="929.5" text-anchor="middle">8</text>
<text class="cycle12-year" x="1212.9" y="899.0" text-anchor="middle" transform="rotate(-90 1212.9 899.0)">2082</text>
<rect class="cycle12-square" x="1342.4" y="917.0" width="24.0" height="24.0" rx="2"/>
<text class="cycle12-number" x="1354.4" y="929.5" text-anchor="middle">9</text>
<text class="cycle12-year" x="1348.4" y="899.0" text-anchor="middle" transform="rotate(-90 1348.4 899.0)">2094</text>
<line class="pinacle-opportunity-bridge" x1="282.0" y1="983.0" x2="642.1" y2="983.0"/>
<line class="pinacle-challenge-bridge" x1="282.0" y1="995.0" x2="642.1" y2="995.0"/>
<text class="opportunity-label" x="462.0" y="972.0" text-anchor="middle">O3</text>
<text class="challenge-label" x="462.0" y="1010.0" text-anchor="middle">P1</text>
<line class="pinacle-opportunity-bridge" x1="666.1" y1="995.0" x2="743.7" y2="995.0"/>
<line class="pinacle-challenge-bridge" x1="666.1" y1="983.0" x2="743.7" y2="983.0"/>
<text class="opportunity-label" x="704.9" y="1010.0" text-anchor="middle">O1</text>
<text class="challenge-label" x="704.9" y="972.0" text-anchor="middle">P8</text>
<line class="pinacle-opportunity-bridge" x1="767.7" y1="995.0" x2="845.4" y2="995.0"/>
<line class="pinacle-challenge-bridge" x1="767.7" y1="983.0" x2="845.4" y2="983.0"/>
<text class="opportunity-label" x="806.6" y="1010.0" text-anchor="middle">O4</text>
<text class="challenge-label" x="806.6" y="972.0" text-anchor="middle">P7</text>
<line class="pinacle-opportunity-bridge" x1="869.4" y1="995.0" x2="1490.0" y2="995.0"/>
<line class="pinacle-challenge-bridge" x1="869.4" y1="983.0" x2="1490.0" y2="983.0"/>
<text class="opportunity-label" x="1179.7" y="1010.0" text-anchor="middle">O2</text>
<text class="challenge-label" x="1179.7" y="972.0" text-anchor="middle">P7</text>
<rect class="pinacle-square" x="258.0" y="977.0" width="24.0" height="24.0" rx="2"/>
<text class="pinacle-number" x="270.0" y="989.5" text-anchor="middle">1</text>
<text class="pinacle-year" x="264.0" y="959.0" text-anchor="middle" transform="rotate(-90 264.0 959.0)">1998</text>
<rect class="pinacle-square" x="642.1" y="977.0" width="24.0" height="24.0" rx="2"/>
<text class="pinacle-number" x="654.1" y="989.5" text-anchor="middle">2</text>
<text class="pinacle-year" x="648.1" y="959.0" text-anchor="middle" transform="rotate(-90 648.1 959.0)">2032</text>
<rect class="pinacle-square" x="743.7" y="977.0" width="24.0" height="24.0" rx="2"/>
<text class="pinacle-number" x="755.7" y="989.5" text-anchor="middle">3</text>
<text class="pinacle-year" x="749.7" y="959.0" text-anchor="middle" transform="rotate(-90 749.7 959.0)">2041</text>
<rect class="pinacle-square" x="845.4" y="977.0" width="24.0" height="24.0" rx="2"/>
<text class="pinacle-number" x="857.4" y="989.5" text-anchor="middle">4</text>
<text class="pinacle-year" x="851.4" y="959.0" text-anchor="middle" transform="rotate(-90 851.4 959.0)">2050</text>
<text class="row-label" x="234.0" y="994.0" text-anchor="end">Pinaclu</text>
<text class="row-label" x="234.0" y="864.0" text-anchor="end">Ciclu 9</text>
<text class="row-label" x="234.0" y="934.0" text-anchor="end">Ciclu 12</text>
<text class="legend" x="1610.0" y="390.0" text-anchor="start">Legenda</text>
<line x1="1610" y1="414" x2="1634" y2="414" stroke="#22b14c" stroke-width="3"/>
<text class="legend" x="1640.0" y="418.0" text-anchor="start">Soarta 3800196</text>
<line x1="1610" y1="436" x2="1634" y2="436" stroke="#ff1616" stroke-width="3"/>
<text class="legend" x="1640.0" y="440.0" text-anchor="start">Destin 3820176</text>
<line x1="1610" y1="458" x2="1632" y2="458" stroke="#22b14c" stroke-width="4" stroke-dasharray="8 5"/>
<text class="legend" x="1640.0" y="462.0" text-anchor="start">Zona confort Soarta 3,86</text>
<line x1="1610" y1="480" x2="1632" y2="480" stroke="#ff1616" stroke-width="4" stroke-dasharray="8 5"/>
<text class="legend" x="1640.0" y="484.0" text-anchor="start">Zona confort Destin 3,86</text>
<line x1="1610" y1="502" x2="1634" y2="502" stroke="#8e44ad" stroke-width="3"/>
<text class="legend" x="1640.0" y="506.0" text-anchor="start">Oportunitate</text>
<line x1="1610" y1="524" x2="1634" y2="524" stroke="#1f8fbf" stroke-width="3"/>
<text class="legend" x="1640.0" y="528.0" text-anchor="start">Provocare</text>
<line x1="1610" y1="546" x2="1634" y2="546" stroke="#9fc9de" stroke-width="3"/>
<text class="legend" x="1640.0" y="550.0" text-anchor="start">Lecții de viață 75924</text>
<line x1="1610" y1="568" x2="1634" y2="568" stroke="#5a4fb0" stroke-width="3" stroke-dasharray="4 4"/>
<text class="legend" x="1640.0" y="572.0" text-anchor="start">An interior</text>
<line x1="1610" y1="590" x2="1634" y2="590" stroke="#2f7f5f" stroke-width="3" stroke-dasharray="4 4"/>
<text class="legend" x="1640.0" y="594.0" text-anchor="start">An exterior</text>
<polygon points="1610.0,599.0 1634.0,599.0 1622.0,623.0" fill="#ff9800" stroke="#ff9800" stroke-width="2"/>
<text class="legend" x="1640.0" y="616.0" text-anchor="start">Ciclu 7</text>
<polygon points="1610.0,645.0 1634.0,645.0 1622.0,621.0" fill="none" stroke="#ff9800" stroke-width="2"/>
<text class="legend" x="1640.0" y="638.0" text-anchor="start">Criză ciclu 7</text>
<rect x="1610" y="644" width="24" height="24" rx="2" fill="#7f2346" stroke="#7f2346" stroke-width="2"/>
<text class="legend" x="1640.0" y="660.0" text-anchor="start">Ciclu 9</text>
<rect x="1610" y="666" width="24" height="24" rx="2" fill="#6f9fbd" stroke="#6f9fbd" stroke-width="2"/>
<text class="legend" x="1640.0" y="682.0" text-anchor="start">Ciclu 12</text>
<rect x="1610" y="688" width="24" height="24" rx="2" fill="#b9a44a" stroke="#b9a44a" stroke-width="2"/>
<text class="legend" x="1640.0" y="704.0" text-anchor="start">Pinaclu</text>
<text class="watermark" x="1880.0" y="1065.0" text-anchor="end">Atlas Numerologie</text>
</svg>
