<svg xmlns="http://www.w3.org/2000/svg" width="1200" height="720" viewBox="0 0 1200 720">
  <title>Soarta si destin - Birsan Daniel Robert</title>
  <desc>Grafic numerologic comparativ pentru numerele grafice 3800196 si 3820176.</desc>
  <defs>
    <style>
      .bg { fill: #fffdf8; }
      .axis { stroke: #2d2d2d; stroke-width: 2; }
      .grid { stroke: #d9d2c4; stroke-width: 1; }
      .comfort-fate { stroke: #bf6b2c; stroke-width: 2; stroke-dasharray: 8 7; }
      .comfort-destiny { stroke: #116466; stroke-width: 2; stroke-dasharray: 5 6; }
      .fate { fill: none; stroke: #bf6b2c; stroke-width: 5; stroke-linejoin: round; stroke-linecap: round; }
      .destiny { fill: none; stroke: #116466; stroke-width: 5; stroke-linejoin: round; stroke-linecap: round; }
      .fate-dot { fill: #bf6b2c; stroke: #fff; stroke-width: 3; }
      .destiny-dot { fill: #116466; stroke: #fff; stroke-width: 3; }
      .meet-dot { fill: #2d2d2d; stroke: #fff; stroke-width: 3; }
      .title { font-family: Arial, Helvetica, sans-serif; font-size: 30px; font-weight: 800; fill: #242424; }
      .subtitle { font-family: Arial, Helvetica, sans-serif; font-size: 17px; font-weight: 700; fill: #555; }
      .label { font-family: Arial, Helvetica, sans-serif; font-size: 15px; fill: #333; }
      .small { font-family: Arial, Helvetica, sans-serif; font-size: 13px; fill: #555; }
      .value { font-family: Arial, Helvetica, sans-serif; font-size: 16px; font-weight: 800; fill: #111; text-anchor: middle; }
      .legend { font-family: Arial, Helvetica, sans-serif; font-size: 16px; font-weight: 800; fill: #222; }
      .box { fill: #ffffff; stroke: #d0c5b4; stroke-width: 1.5; rx: 8; }
    </style>
  </defs>
  <rect class="bg" width="1200" height="720"/>
  <text class="title" x="60" y="54">Soarta si destin - Birsan Daniel Robert</text>
  <text class="subtitle" x="60" y="82">Data nasterii: 19.02.1998 | Soarta: 1902 x 1998 = 3800196 | Destin: 1912 x 1998 = 3820176</text>

  <g id="chart" transform="translate(95,130)">
    <rect class="box" x="-35" y="-30" width="820" height="470"/>
    <line class="axis" x1="0" y1="400" x2="735" y2="400"/>
    <line class="axis" x1="0" y1="0" x2="0" y2="400"/>
    <g class="grid">
      <line x1="0" y1="355.6" x2="735" y2="355.6"/>
      <line x1="0" y1="311.1" x2="735" y2="311.1"/>
      <line x1="0" y1="266.7" x2="735" y2="266.7"/>
      <line x1="0" y1="222.2" x2="735" y2="222.2"/>
      <line x1="0" y1="177.8" x2="735" y2="177.8"/>
      <line x1="0" y1="133.3" x2="735" y2="133.3"/>
      <line x1="0" y1="88.9" x2="735" y2="88.9"/>
      <line x1="0" y1="44.4" x2="735" y2="44.4"/>
    </g>
    <line class="comfort-fate" x1="0" y1="228.6" x2="735" y2="228.6"/>
    <line class="comfort-destiny" x1="0" y1="228.6" x2="735" y2="228.6"/>
    <polyline class="fate" points="0,266.7 122.5,44.4 245,400 367.5,400 490,355.6 612.5,0 735,133.3"/>
    <polyline class="destiny" points="0,266.7 122.5,44.4 245,311.1 367.5,400 490,355.6 612.5,88.9 735,133.3"/>

    <g>
      <circle class="meet-dot" cx="0" cy="266.7" r="10"/><text class="value" x="0" y="247">3</text>
      <circle class="meet-dot" cx="122.5" cy="44.4" r="10"/><text class="value" x="122.5" y="25">8</text>
      <circle class="fate-dot" cx="245" cy="400" r="9"/><text class="value" x="245" y="384">0</text>
      <circle class="destiny-dot" cx="245" cy="311.1" r="9"/><text class="value" x="245" y="292">2</text>
      <circle class="meet-dot" cx="367.5" cy="400" r="10"/><text class="value" x="367.5" y="384">0</text>
      <circle class="meet-dot" cx="490" cy="355.6" r="10"/><text class="value" x="490" y="337">1</text>
      <circle class="fate-dot" cx="612.5" cy="0" r="9"/><text class="value" x="612.5" y="-14">9</text>
      <circle class="destiny-dot" cx="612.5" cy="88.9" r="9"/><text class="value" x="612.5" y="72">7</text>
      <circle class="meet-dot" cx="735" cy="133.3" r="10"/><text class="value" x="735" y="115">6</text>
    </g>

    <g class="label">
      <text x="-24" y="405">0</text><text x="-24" y="272">3</text><text x="-24" y="139">6</text><text x="-24" y="5">9</text>
      <text x="-5" y="430">1</text><text x="117" y="430">2</text><text x="240" y="430">3</text><text x="362" y="430">4</text>
      <text x="485" y="430">5</text><text x="607" y="430">6</text><text x="730" y="430">7</text>
      <text x="300" y="462">Pozitia cifrei in numarul grafic</text>
      <text x="-72" y="214" transform="rotate(-90 -72 214)">Valoare cifra</text>
    </g>
  </g>

  <g transform="translate(900,150)">
    <rect class="box" x="-20" y="-28" width="250" height="245"/>
    <text class="legend" x="0" y="0">Legenda</text>
    <line class="fate" x1="0" y1="34" x2="70" y2="34"/><text class="label" x="88" y="39">Soarta 3800196</text>
    <line class="destiny" x1="0" y1="70" x2="70" y2="70"/><text class="label" x="88" y="75">Destin 3820176</text>
    <line class="comfort-fate" x1="0" y1="108" x2="70" y2="108"/><text class="label" x="88" y="113">Zona confort 3,86</text>
    <circle class="meet-dot" cx="12" cy="145" r="8"/><text class="label" x="34" y="150">Punct de intalnire</text>
    <text class="small" x="0" y="184">Intalniri: pozitiile 1, 2, 4, 5, 7</text>
    <text class="small" x="0" y="207">Rascruci: pozitiile 3 si 6</text>
  </g>

  <g transform="translate(60,640)">
    <text class="subtitle" x="0" y="0">Sinteza: liniile sunt foarte apropiate. Destinul ridica pozitia 3 de la 0 la 2 si coboara pozitia 6 de la 9 la 7, deci tema este trecerea de la inertie la exprimare si de la intensitate mentala la maturitate aplicata.</text>
  </g>
</svg>
