<svg xmlns="http://www.w3.org/2000/svg" width="900" height="850" viewBox="0 0 900 850" role="img" aria-labelledby="title desc"><title id="title">Matrita datei de nastere pentru Bîrsan Daniel Robert</title><desc id="desc">Matrice numerologica 3 pe 3 cu aparitii, optim si geometrie.</desc><style>.title{font:700 31px Georgia,serif;fill:#0b2b2c}.name{font:700 22px Arial,sans-serif;fill:#0b2b2c}.sub{font:14px Arial,sans-serif;fill:#365455}.value{font:800 30px Georgia,serif;fill:#0b2b2c}.small{font:13px Arial,sans-serif;fill:#284748}</style><rect width="900" height="850" fill="#f7efe3"/><text x="450" y="68" text-anchor="middle" class="title">Matrita datei de nastere</text><text x="450" y="108" text-anchor="middle" class="name">Bîrsan Daniel Robert</text><text x="450" y="145" text-anchor="middle" class="sub">19.02.1998 · N1=39 · N2=12 · N3=37 · N4=10 · sir 1902199839123710</text><g aria-label="Casuta 1: 1111; patrat"><rect x="75" y="245" width="235" height="165" rx="8" fill="#e6b4a9" stroke="#0b2b2c" stroke-opacity=".25"/><text x="87" y="267" class="small">1</text><text x="192.5" y="331" class="value" text-anchor="middle">1111</text><text x="87" y="397" class="small">optim 111</text><rect x="253" y="356" width="32" height="32" fill="none" stroke="#0b2b2c" stroke-width="2.4" stroke-linejoin="round"/></g><g aria-label="Casuta 4: —; absent"><rect x="325" y="245" width="235" height="165" rx="8" fill="#d8c1a2" stroke="#0b2b2c" stroke-opacity=".25"/><text x="337" y="267" class="small">4</text><text x="442.5" y="331" class="value" text-anchor="middle">—</text><text x="337" y="397" class="small">optim 44</text></g><g aria-label="Casuta 7: 7; cerc"><rect x="575" y="245" width="235" height="165" rx="8" fill="#fffaf3" stroke="#0b2b2c" stroke-opacity=".25"/><text x="587" y="267" class="small">7</text><text x="692.5" y="331" class="value" text-anchor="middle">7</text><text x="587" y="397" class="small">optim 7</text><circle cx="769" cy="372" r="11" fill="none" stroke="#0b2b2c" stroke-width="2.4" stroke-linejoin="round"/></g><g aria-label="Casuta 2: 22; doua cercuri legate"><rect x="75" y="425" width="235" height="165" rx="8" fill="#b8d9e7" stroke="#0b2b2c" stroke-opacity=".25"/><text x="87" y="447" class="small">2</text><text x="192.5" y="511" class="value" text-anchor="middle">22</text><text x="87" y="577" class="small">optim 222</text><line x1="261" y1="552" x2="277" y2="552" fill="none" stroke="#0b2b2c" stroke-width="2.4" stroke-linejoin="round"/><circle cx="250" cy="552" r="10" fill="none" stroke="#0b2b2c" stroke-width="2.4" stroke-linejoin="round"/><circle cx="288" cy="552" r="10" fill="none" stroke="#0b2b2c" stroke-width="2.4" stroke-linejoin="round"/></g><g aria-label="Casuta 5: —; absent"><rect x="325" y="425" width="235" height="165" rx="8" fill="#e6b4a9" stroke="#0b2b2c" stroke-opacity=".25"/><text x="337" y="447" class="small">5</text><text x="442.5" y="511" class="value" text-anchor="middle">—</text><text x="337" y="577" class="small">optim 55</text></g><g aria-label="Casuta 8: 8; cerc"><rect x="575" y="425" width="235" height="165" rx="8" fill="#d8c1a2" stroke="#0b2b2c" stroke-opacity=".25"/><text x="587" y="447" class="small">8</text><text x="692.5" y="511" class="value" text-anchor="middle">8</text><text x="587" y="577" class="small">optim 8</text><circle cx="769" cy="552" r="11" fill="none" stroke="#0b2b2c" stroke-width="2.4" stroke-linejoin="round"/></g><g aria-label="Casuta 3: 33; doua cercuri legate"><rect x="75" y="605" width="235" height="165" rx="8" fill="#fffaf3" stroke="#0b2b2c" stroke-opacity=".25"/><text x="87" y="627" class="small">3</text><text x="192.5" y="691" class="value" text-anchor="middle">33</text><text x="87" y="757" class="small">optim 333</text><line x1="261" y1="732" x2="277" y2="732" fill="none" stroke="#0b2b2c" stroke-width="2.4" stroke-linejoin="round"/><circle cx="250" cy="732" r="10" fill="none" stroke="#0b2b2c" stroke-width="2.4" stroke-linejoin="round"/><circle cx="288" cy="732" r="10" fill="none" stroke="#0b2b2c" stroke-width="2.4" stroke-linejoin="round"/></g><g aria-label="Casuta 6: —; absent"><rect x="325" y="605" width="235" height="165" rx="8" fill="#b8d9e7" stroke="#0b2b2c" stroke-opacity=".25"/><text x="337" y="627" class="small">6</text><text x="442.5" y="691" class="value" text-anchor="middle">—</text><text x="337" y="757" class="small">optim 66</text></g><g aria-label="Casuta 9: 9999; patrat"><rect x="575" y="605" width="235" height="165" rx="8" fill="#e6b4a9" stroke="#0b2b2c" stroke-opacity=".25"/><text x="587" y="627" class="small">9</text><text x="692.5" y="691" class="value" text-anchor="middle">9999</text><text x="587" y="757" class="small">optim 9</text><rect x="753" y="716" width="32" height="32" fill="none" stroke="#0b2b2c" stroke-width="2.4" stroke-linejoin="round"/></g><text x="825" y="820" text-anchor="end" class="sub">Atlas Numerologie</text></svg>