<svg xmlns="http://www.w3.org/2000/svg" viewBox="0 0 1000 70" fill="none" role="img" aria-label="Ornament vegetal central cu dispariție graduală simetrică">
  <defs>
    <linearGradient id="gold" x1="210" y1="35" x2="790" y2="35" gradientUnits="userSpaceOnUse">
      <stop stop-color="#d8b86e"/><stop offset=".5" stop-color="#945f1b"/><stop offset="1" stop-color="#d8b86e"/>
    </linearGradient>
    <linearGradient id="centerFade" x1="205" y1="0" x2="795" y2="0" gradientUnits="userSpaceOnUse">
      <stop stop-color="black"/>
      <stop offset=".14" stop-color="white" stop-opacity=".1"/>
      <stop offset=".33" stop-color="white" stop-opacity=".65"/>
      <stop offset=".44" stop-color="white"/>
      <stop offset=".56" stop-color="white"/>
      <stop offset=".67" stop-color="white" stop-opacity=".65"/>
      <stop offset=".86" stop-color="white" stop-opacity=".1"/>
      <stop offset="1" stop-color="black"/>
    </linearGradient>
    <mask id="fade"><rect x="195" width="610" height="70" fill="url(#centerFade)"/></mask>
    <g id="half">
      <path d="M500 13H210" stroke-width="1.7"/>
      <path d="M500 18c-38 0-58 10-88 8-31-2-45-18-75-15-28 3-41 18-67 16-21-2-38-11-60-8" stroke-width="1.06"/>
      <path d="M499 24c-35 0-54 13-82 12-29-1-44-18-72-15-27 3-39 18-65 17-22-1-40-10-70-6" stroke-width=".78"/>
      <path d="M467 18c-13 16-34 19-48 5-12-12-2-29 14-28 16 1 21 20 9 30-13 11-34 4-40-12" stroke-width="1.25"/>
      <path d="M393 22c-12-14-31-16-44-4-11 11-3 26 12 26 15 0 21-17 11-27" stroke-width="1.06"/>
      <path d="M326 21c-11 13-29 15-41 4-10-10-3-24 11-25 14-1 20 15 11 25" stroke-width=".92"/>
      <path d="M445 10c-14-8-28-8-42 0 8 13 22 14 42 0ZM374 12c-13-8-26-7-39 1 8 11 21 12 39-1ZM308 13c-11-7-23-6-34 1 7 10 18 10 34-1Z" fill="#d8b76d" fill-opacity=".13" stroke-width=".68"/>
      <path d="M490 39c-48-8-85 7-128 2-42-5-75-13-143-2" stroke-width=".5" opacity=".48"/>
    </g>
  </defs>
  <g mask="url(#fade)" stroke="url(#gold)" stroke-linecap="round" stroke-linejoin="round">
    <use href="#half"/>
    <use href="#half" transform="translate(1000 0) scale(-1 1)"/>
    <path d="M500 5c4 10 10 18 21 23-11 4-18 11-22 22-4-11-11-18-22-22 11-5 18-13 23-23Z" fill="#d8b76d" fill-opacity=".18" stroke-width="1.2"/>
    <path d="M500 14c2 7 7 11 14 15-7 2-11 7-14 14-3-7-7-12-14-15 7-3 12-7 14-14Z" stroke-width=".68"/>
    <circle cx="500" cy="29" r="3.5" fill="#f0dda5" fill-opacity=".48" stroke-width=".76"/>
    <path d="M461 29c10-9 20-9 30 0-10 9-20 9-30 0ZM509 29c10-9 20-9 30 0-10 9-20 9-30 0Z" fill="#d8b76d" fill-opacity=".1" stroke-width=".64"/>
  </g>
</svg>
