<svg xmlns="http://www.w3.org/2000/svg" width="1100" height="860" viewBox="0 0 1100 860">
  <rect width="1100" height="860" fill="#fbf7ef"/>
  <text x="550" y="56" text-anchor="middle" font-family="Georgia, serif" font-size="30" fill="#3d2c22">Patratul de Aur - 06 noiembrie 1984</text>
  <text x="550" y="88" text-anchor="middle" font-family="Arial, sans-serif" font-size="16" fill="#6d5b50">Ordine: 4 -> 9 -> 2 -> 3 -> 5 -> 7 -> 8 -> 1 -> 6 | Centru: 10 | Suma: 30</text>

  <defs>
    <filter id="soft-shadow" x="-20%" y="-20%" width="140%" height="140%">
      <feDropShadow dx="0" dy="10" stdDeviation="10" flood-color="#3d2c22" flood-opacity="0.16"/>
    </filter>
  </defs>

  <g transform="translate(250 145)" filter="url(#soft-shadow)">
    <rect x="0" y="0" width="600" height="600" rx="10" fill="#fffdf8" stroke="#7a6558" stroke-width="4"/>

    <rect x="0" y="0" width="200" height="200" fill="#ff3f46"/>
    <rect x="200" y="0" width="200" height="200" fill="#d19b61"/>
    <rect x="400" y="0" width="200" height="200" fill="#e8ecef"/>
    <rect x="0" y="200" width="200" height="200" fill="#6fa0e8"/>
    <rect x="200" y="200" width="200" height="200" fill="#ff3f46"/>
    <rect x="400" y="200" width="200" height="200" fill="#d19b61"/>
    <rect x="0" y="400" width="200" height="200" fill="#e8ecef"/>
    <rect x="200" y="400" width="200" height="200" fill="#6fa0e8"/>
    <rect x="400" y="400" width="200" height="200" fill="#ff3f46"/>

    <g stroke="#fffdf8" stroke-width="4">
      <line x1="200" y1="0" x2="200" y2="600"/>
      <line x1="400" y1="0" x2="400" y2="600"/>
      <line x1="0" y1="200" x2="600" y2="200"/>
      <line x1="0" y1="400" x2="600" y2="400"/>
    </g>

    <g font-family="Arial, sans-serif" text-anchor="middle">
      <text x="100" y="48" font-size="22" fill="#fffdf8">casuta 1</text>
      <text x="300" y="48" font-size="22" fill="#3d2c22">casuta 4</text>
      <text x="500" y="48" font-size="22" fill="#3d2c22">casuta 7</text>
      <text x="100" y="248" font-size="22" fill="#fffdf8">casuta 2</text>
      <text x="300" y="248" font-size="22" fill="#fffdf8">casuta 5</text>
      <text x="500" y="248" font-size="22" fill="#3d2c22">casuta 8</text>
      <text x="100" y="448" font-size="22" fill="#3d2c22">casuta 3</text>
      <text x="300" y="448" font-size="22" fill="#fffdf8">casuta 6</text>
      <text x="500" y="448" font-size="22" fill="#fffdf8">casuta 9</text>
    </g>

    <g font-family="Georgia, serif" font-weight="700" font-size="72" text-anchor="middle">
      <text x="100" y="126" fill="#fffdf8">13</text>
      <text x="300" y="126" fill="#111111">6</text>
      <text x="500" y="126" fill="#3d2c22">11</text>
      <text x="100" y="326" fill="#fffdf8">8</text>
      <text x="300" y="326" fill="#fffdf8">10</text>
      <text x="500" y="326" fill="#111111">12</text>
      <text x="100" y="526" fill="#3d2c22">9</text>
      <text x="300" y="526" fill="#fffdf8">14</text>
      <text x="500" y="526" fill="#fffdf8">7</text>
    </g>
  </g>

  <g font-family="Arial, sans-serif" font-size="18" fill="#3d2c22">
    <text x="875" y="190">Linii:</text>
    <text x="875" y="224">13 + 6 + 11 = 30</text>
    <text x="875" y="254">8 + 10 + 12 = 30</text>
    <text x="875" y="284">9 + 14 + 7 = 30</text>
    <text x="875" y="342">Coloane:</text>
    <text x="875" y="376">13 + 8 + 9 = 30</text>
    <text x="875" y="406">6 + 10 + 14 = 30</text>
    <text x="875" y="436">11 + 12 + 7 = 30</text>
    <text x="875" y="494">Diagonale:</text>
    <text x="875" y="528">13 + 10 + 7 = 30</text>
    <text x="875" y="558">11 + 10 + 9 = 30</text>
  </g>

  <g transform="translate(330 805)" font-family="Arial, sans-serif" font-size="14" fill="#3d2c22">
    <circle cx="0" cy="-5" r="10" fill="#ff3f46"/><text x="18" y="0">Foc</text>
    <circle cx="120" cy="-5" r="10" fill="#6fa0e8"/><text x="138" y="0">Apa</text>
    <circle cx="240" cy="-5" r="10" fill="#e8ecef" stroke="#9aa3aa"/><text x="258" y="0">Aer</text>
    <circle cx="360" cy="-5" r="10" fill="#d19b61"/><text x="378" y="0">Pamant</text>
  </g>
</svg>
