<svg xmlns="http://www.w3.org/2000/svg" width="1200" height="760" viewBox="0 0 1200 760">
  <rect width="1200" height="760" fill="#fbf7ef"/>
  <text x="600" y="54" text-anchor="middle" font-family="Georgia, serif" font-size="28" fill="#3d2c22">Semnatura astrala - 27 noiembrie 1973</text>
  <text x="600" y="86" text-anchor="middle" font-family="Arial, sans-serif" font-size="16" fill="#6d5b50">CNP astral: 27.11.1973.31.4.27.9 | Destin: 4 | Centru de rotire: cifra 2</text>

  <defs>
    <marker id="arrow-red" viewBox="0 0 10 10" refX="8" refY="5" markerWidth="6" markerHeight="6" orient="auto-start-reverse">
      <path d="M 0 0 L 10 5 L 0 10 z" fill="#b11f2a"/>
    </marker>
    <marker id="arrow-teal" viewBox="0 0 10 10" refX="8" refY="5" markerWidth="6" markerHeight="6" orient="auto-start-reverse">
      <path d="M 0 0 L 10 5 L 0 10 z" fill="#0f7f85"/>
    </marker>
    <g id="pitagora-grid">
      <rect x="0" y="0" width="360" height="360" fill="#fffdf8" stroke="#7a6558" stroke-width="3"/>
      <line x1="120" y1="0" x2="120" y2="360" stroke="#c6b7aa" stroke-width="2"/>
      <line x1="240" y1="0" x2="240" y2="360" stroke="#c6b7aa" stroke-width="2"/>
      <line x1="0" y1="120" x2="360" y2="120" stroke="#c6b7aa" stroke-width="2"/>
      <line x1="0" y1="240" x2="360" y2="240" stroke="#c6b7aa" stroke-width="2"/>
      <text x="60" y="72" text-anchor="middle" font-family="Georgia, serif" font-size="38" fill="#7a6558">1</text>
      <text x="180" y="72" text-anchor="middle" font-family="Georgia, serif" font-size="38" fill="#7a6558">4</text>
      <text x="300" y="72" text-anchor="middle" font-family="Georgia, serif" font-size="38" fill="#7a6558">7</text>
      <text x="60" y="192" text-anchor="middle" font-family="Georgia, serif" font-size="38" fill="#7a6558">2</text>
      <text x="180" y="192" text-anchor="middle" font-family="Georgia, serif" font-size="38" fill="#7a6558">5</text>
      <text x="300" y="192" text-anchor="middle" font-family="Georgia, serif" font-size="38" fill="#7a6558">8</text>
      <text x="60" y="312" text-anchor="middle" font-family="Georgia, serif" font-size="38" fill="#7a6558">3</text>
      <text x="180" y="312" text-anchor="middle" font-family="Georgia, serif" font-size="38" fill="#7a6558">6</text>
      <text x="300" y="312" text-anchor="middle" font-family="Georgia, serif" font-size="38" fill="#7a6558">9</text>
    </g>
    <polyline id="signature-path" points="60,180 300,60 60,60 60,60 60,60 300,300 300,60 60,300 60,300 60,60 180,60 60,180 300,60 300,300" fill="none" stroke-linecap="round" stroke-linejoin="round"/>
  </defs>

  <g transform="translate(120 160)">
    <text x="180" y="-24" text-anchor="middle" font-family="Arial, sans-serif" font-size="18" fill="#3d2c22">Forma de baza</text>
    <use href="#pitagora-grid"/>
    <use href="#signature-path" stroke="#b11f2a" stroke-width="8" marker-end="url(#arrow-red)"/>
    <circle cx="60" cy="180" r="14" fill="#0f7f85" stroke="#fffdf8" stroke-width="4"/>
    <text x="60" y="224" text-anchor="middle" font-family="Arial, sans-serif" font-size="14" fill="#0f7f85">start / centru</text>
  </g>

  <g transform="translate(700 160)">
    <text x="180" y="-24" text-anchor="middle" font-family="Arial, sans-serif" font-size="18" fill="#3d2c22">Multiplicare dupa destin: 4 rotiri</text>
    <use href="#pitagora-grid"/>
    <g opacity="0.52">
      <use href="#signature-path" stroke="#b11f2a" stroke-width="6" transform="rotate(0 60 180)"/>
      <use href="#signature-path" stroke="#d08a24" stroke-width="6" transform="rotate(90 60 180)"/>
      <use href="#signature-path" stroke="#0f7f85" stroke-width="6" transform="rotate(180 60 180)"/>
      <use href="#signature-path" stroke="#5a4aa0" stroke-width="6" transform="rotate(270 60 180)"/>
    </g>
    <circle cx="60" cy="180" r="14" fill="#0f7f85" stroke="#fffdf8" stroke-width="4"/>
    <text x="60" y="224" text-anchor="middle" font-family="Arial, sans-serif" font-size="14" fill="#0f7f85">centru de rotire</text>
  </g>

  <g transform="translate(118 610)">
    <text x="0" y="0" font-family="Arial, sans-serif" font-size="16" fill="#3d2c22">Traseu folosit:</text>
    <text x="0" y="30" font-family="Arial, sans-serif" font-size="18" fill="#6d5b50">2 -> 7 -> 1 -> 1 -> 1 -> 9 -> 7 -> 3 -> 3 -> 1 -> 4 -> 2 -> 7 -> 9</text>
  </g>
  <text x="1180" y="745" text-anchor="end" font-family="Arial, Helvetica, sans-serif" font-size="14" fill="#aaa" font-weight="800">Atlas Numerologie</text>
</svg>
